# xmcd
#
# Track frame offsets:
#	150
#	19571
#	38007
#	59553
#	79096
#	102866
#	124669
#	146229
#	163961
#	186297
#	216434
#
# Disc length: 3084 seconds
#
# Revision: 1
# Processed by: cddbd v1.5.1PL2 Copyright (c) Steve Scherf et al.
# Submitted via: audiograbber 1.83.01
#
DISCID=9e0c0a0b
DTITLE=Kevin Montgomery - Another Long Story
DYEAR=2003
DGENRE=Country
TTITLE0=Another Long Story
TTITLE1=Let's All Go To California
TTITLE2=Visions Of White
TTITLE3=I Wish I Were Blind
TTITLE4=Lookin'Out For #1
TTITLE5=Angel Tonight
TTITLE6=Stumbled
TTITLE7=Your Kind Of Love
TTITLE8=Broken
TTITLE9=At Our Best
TTITLE10=Data Track
EXTD=
EXTT0=
EXTT1=
EXTT2=
EXTT3=
EXTT4=
EXTT5=
EXTT6=
EXTT7=
EXTT8=
EXTT9=
EXTT10=
PLAYORDER=
